<svg xmlns="http://www.w3.org/2000/svg" width="25" height="25" viewBox="0 0 25 25">
  <g id="Group_796" data-name="Group 796" transform="translate(-38 -604)">
    <circle id="Ellipse_3" data-name="Ellipse 3" cx="12.5" cy="12.5" r="12.5" transform="translate(38 604)" fill="#fff"/>
    <g id="Group_782" data-name="Group 782" transform="translate(-55.703 608.319)">
      <path id="Path_350" data-name="Path 350" d="M111.516,2.685a5.042,5.042,0,0,0-1.97-1.921A6.114,6.114,0,0,0,106.563,0,6.975,6.975,0,0,0,103.2.8a3.694,3.694,0,0,0-1.234,1.01.591.591,0,0,0,.018.939l1.193.906A.672.672,0,0,0,104,3.642a1.587,1.587,0,0,1,.606-.5,4,4,0,0,1,1.956-.449,3.069,3.069,0,0,1,1.926.652,2.071,2.071,0,0,1,.509.588,1.031,1.031,0,0,1,.145.49,1.948,1.948,0,0,1-.219.958,1.964,1.964,0,0,1-.39.5,4.371,4.371,0,0,1-.951.645c-.373.2-.776.376-1.182.588a3.6,3.6,0,0,0-1.318,1.119,2.953,2.953,0,0,0-.412.87,3.5,3.5,0,0,0-.132.978v.652a.628.628,0,0,0,.644.611h1.553a.628.628,0,0,0,.644-.611v-.652a.972.972,0,0,1,.03-.265.325.325,0,0,1,.082-.147,1.105,1.105,0,0,1,.289-.2c.233-.124.608-.292,1.032-.509a6.835,6.835,0,0,0,2.058-1.513,4.42,4.42,0,0,0,.808-1.321,4.65,4.65,0,0,0,.306-1.7A3.6,3.6,0,0,0,111.516,2.685Z" transform="translate(0 0)" fill="#3a6ea5"/>
      <path id="Path_351" data-name="Path 351" d="M177.991,406.44a1.969,1.969,0,1,0,1.969,1.97A1.97,1.97,0,0,0,177.991,406.44Z" transform="translate(-71.973 -393.379)" fill="#3a6ea5"/>
    </g>
  </g>
</svg>