<?xml version="1.0" encoding="iso-8859-1"?>
<!-- Generator: Adobe Illustrator 19.0.0, SVG Export Plug-In . SVG Version: 6.00 Build 0)  -->
<svg version="1.1" id="Layer_1" xmlns="http://www.w3.org/2000/svg" xmlns:xlink="http://www.w3.org/1999/xlink" x="0px" y="0px"
	 viewBox="0 0 438.949 438.949" style="enable-background:new 0 0 438.949 438.949;" xml:space="preserve">
<path style="fill:#939598;" d="M410.282,126.172l4.8,20c12,51.2,17.2,103.6,15.6,156l-0.8,30c-0.8,20.8-18.8,36.8-39.6,34.8l-4-0.4
	c-20.8-2-38.8-14.8-48-33.6l-11.6-24.4c-13.2-27.6-41.2-45.2-72-45.2h-64c-30,0-57.2,16.8-70.8,43.2l-14.8,28
	c-9.2,18-27.2,30-47.2,32l-9.2,0.8c-20.8,2-38.8-14-39.6-34.8l-0.8-30.4c-1.6-52.4,3.6-105.2,15.6-156l4.8-20
	c10.8-32.8,41.6-54.8,76-54.8h6c7.6,0,15.2,1.2,22.4,3.2l43.2,12.8c9.2,2.8,18.8,4,28.4,4h29.2c9.6,0,19.2-1.2,28.4-4l43.2-12.8
	c7.2-2,14.8-3.2,22.4-3.2h6.4C368.682,70.972,399.482,93.372,410.282,126.172z"/>
<path style="fill:#6D6E71;" d="M45.082,375.372c-10.4,0-20.8-3.6-28.8-10.8c-9.2-8-14.8-19.6-15.2-31.6l-0.8-30.4
	c-1.6-53.6,3.6-106.8,16-158l4.8-20c0-0.4,0-0.4,0-0.8c12-36,45.6-60.4,83.6-60.4h6c8,0,16.4,1.2,24.4,3.6l43.6,12.8
	c8,2.4,16.8,3.6,26,3.6h29.2c9.2,0,18-1.2,26-3.6l43.2-12.8c8.4-2.4,16.8-3.6,24.8-3.6h6.4c37.6-0.4,71.6,23.6,83.6,60.4
	c0,0.4,0,0.4,0,0.8l4.8,20c12,51.6,17.6,104.8,16,158l-0.8,30c-0.4,12.4-6,24-15.2,32s-21.2,12-33.2,10.8l-4-0.4
	c-23.6-2.4-44-16.4-54.4-38l-11.6-24.4c-12-25.2-37.2-41.2-64.8-41.2h-64c-26.8,0-51.2,14.8-63.6,38.8l-14.8,28
	c-10.4,20-30.8,34-53.6,36.4l-9.2,0.8C47.882,375.372,46.682,375.372,45.082,375.372z M36.282,128.172l-4.8,19.6
	c-11.6,50-16.8,101.6-15.2,154l0.8,30.4c0.4,8,3.6,15.2,9.6,20.4c6,5.2,13.2,7.6,21.2,6.8l9.2-0.8c17.2-1.6,32.8-12.4,40.8-27.6
	l14.8-28c15.2-29.2,45.2-47.6,78-47.6h64c33.6,0,64.8,19.6,79.2,49.6l11.6,24.4c8,16.4,23.6,27.2,41.6,29.2l4,0.4
	c7.6,0.8,15.2-1.6,21.2-6.8c6-5.2,9.2-12.4,9.6-20.4l0.8-30c1.6-52-3.6-103.6-15.2-154l-4.8-19.6c-9.6-28.8-37.2-48.8-67.6-48.8
	c-0.4,0-0.4,0-0.8,0h-6.4c-6.4,0-13.2,0.8-20.4,2.8l-43.2,12.8c-9.6,2.8-19.6,4.4-30.8,4.4h-29.2c-10.8,0-21.2-1.6-30.8-4.4
	l-42.8-12.8c-6.8-2-13.6-2.8-20-2.8h-6C73.482,79.372,46.282,98.972,36.282,128.172z"/>
<g>
	<path style="fill:#80E7FF;" d="M170.682,190.972h-96c-4.4,0-8-3.6-8-8s3.6-8,8-8h96c4.4,0,8,3.6,8,8
		S175.082,190.972,170.682,190.972z"/>
	<path style="fill:#80E7FF;" d="M122.282,238.972c-4.4,0-8-3.6-8-8v-96c0-4.4,3.6-8,8-8s8,3.6,8,8v96
		C130.282,235.372,126.682,238.972,122.282,238.972z"/>
</g>
<path style="fill:#ECC7FF;" d="M274.682,196.972c-4,0-8-1.6-11.2-4.8c-6.4-6.4-6.4-16.4,0-22.8l2.8-2.8c6.4-6.4,16.4-6.4,22.8,0
	s6.4,16.4,0,22.8l-2.8,2.8C282.682,195.372,278.682,196.972,274.682,196.972z"/>
<path style="fill:#80D440;" d="M315.882,154.572c-4,0-8-1.6-11.2-4.8c-6.4-6.4-6.4-16.4,0-22.8l2.8-2.8c6.4-6.4,16.4-6.4,22.8,0
	c6.4,6.4,6.4,16.4,0,22.8l-2.8,2.8C323.882,152.972,319.882,154.572,315.882,154.572z"/>
<path style="fill:#80E7FF;" d="M315.882,239.372c-4,0-8-1.6-11.2-4.8c-6.4-6.4-6.4-16.4,0-22.8l2.8-2.8c6.4-6.4,16.4-6.4,22.8,0
	c6.4,6.4,6.4,16.4,0,22.8l-2.8,2.8C323.882,237.772,319.882,239.372,315.882,239.372z"/>
<path style="fill:#FF793B;" d="M359.482,196.972c-4,0-8-1.6-11.2-4.8c-6.4-6.4-6.4-16.4,0-22.8l2.8-2.8c6.4-6.4,16.4-6.4,22.8,0
	s6.4,16.4,0,22.8l-2.8,2.8C367.482,195.372,363.482,196.972,359.482,196.972z"/>
<g>
</g>
<g>
</g>
<g>
</g>
<g>
</g>
<g>
</g>
<g>
</g>
<g>
</g>
<g>
</g>
<g>
</g>
<g>
</g>
<g>
</g>
<g>
</g>
<g>
</g>
<g>
</g>
<g>
</g>
</svg>
