<svg xmlns="http://www.w3.org/2000/svg" width="11.104" height="14" viewBox="0 0 11.104 14">
  <path id="Path_387" data-name="Path 387" d="M52.963,0V14h4.828V10.621h1.448V14h4.828V0Zm3.379,12.069H54.894V10.621h1.448Zm0-2.9H54.894V7.724h1.448Zm0-2.9H54.894V4.828h1.448Zm0-2.9H54.894V1.931h1.448Zm2.9,5.793H57.791V7.724h1.448Zm0-2.9H57.791V4.828h1.448Zm0-2.9H57.791V1.931h1.448Zm2.9,8.69H60.687V10.621h1.448Zm0-2.9H60.687V7.724h1.448Zm0-2.9H60.687V4.828h1.448Zm0-2.9H60.687V1.931h1.448Z" transform="translate(-52.963)" fill="#333"/>
</svg>
