<svg xmlns="http://www.w3.org/2000/svg" width="40.534" height="36.592" viewBox="0 0 40.534 36.592">
  <g id="Group_4" data-name="Group 4" transform="translate(0 -35.398)">
    <path id="Path_40" data-name="Path 40" d="M35.149,121.6H5.386A5.386,5.386,0,0,0,0,126.988v2.957l16.415,3.679v-.3a1.8,1.8,0,0,1,1.8-1.8h4.009a1.8,1.8,0,0,1,1.8,1.8v.3l16.52-3.714v-2.922A5.386,5.386,0,0,0,35.149,121.6Z" transform="translate(0 -79.379)" fill="#888"/>
    <path id="Path_41" data-name="Path 41" d="M24.015,267.613a1.8,1.8,0,0,1-1.8,1.8H18.21a1.8,1.8,0,0,1-1.8-1.8v-3.563L0,260.372v13.362a5.386,5.386,0,0,0,5.386,5.386H35.149a5.386,5.386,0,0,0,5.386-5.386v-13.4l-16.52,3.715Z" transform="translate(0 -207.13)" fill="#888"/>
    <rect id="Rectangle_683" data-name="Rectangle 683" width="3.8" height="6.334" transform="translate(18.315 54.045)" fill="#888"/>
    <path id="Path_42" data-name="Path 42" d="M140.623,39.389a.57.57,0,0,1,.57-.571h10.83a.57.57,0,0,1,.57.571v2.85h3.42v-2.85a3.991,3.991,0,0,0-3.99-3.991h-10.83a3.99,3.99,0,0,0-3.99,3.991v2.85h3.42v-2.85Z" transform="translate(-126.341)" fill="#888"/>
  </g>
</svg>