<svg xmlns="http://www.w3.org/2000/svg" width="31.416" height="15.194" viewBox="0 0 31.416 15.194">
<path id="Path_363" data-name="Path 363" d="M30.284,8.753a4.683,4.683,0,0,0-3.251-1.2H23.85a2.179,2.179,0,0,1-1.472-.445.829.829,0,0,1-.308-.65.954.954,0,0,1,.342-.719A2.108,2.108,0,0,1,23.884,5.3h4.894l-2.19-2.909h-2.7a4.964,4.964,0,0,0-3.422,1.2A3.68,3.68,0,0,0,19.2,6.46,3.741,3.741,0,0,0,20.53,9.3a5,5,0,0,0,3.388,1.129H27.1a1.708,1.708,0,0,1,1.266.411.968.968,0,0,1,.308.684.843.843,0,0,1-.308.65,1.822,1.822,0,0,1-1.266.376H20.325L11.667.882a1.454,1.454,0,0,0-2.327,0L.1,13.133H3.728l2.019-2.669h6.81l-2.19-2.875H7.937l2.6-3.456,2.6,3.456h0l4.072,5.818h0l1.164,1.506a1.4,1.4,0,0,0,1.164.582h7.529a4.662,4.662,0,0,0,3.251-1.164,3.869,3.869,0,0,0,1.2-2.772A3.923,3.923,0,0,0,30.284,8.753Z" transform="translate(-0.1 -0.3)" fill="#fff"/>
</svg>