<svg xmlns="http://www.w3.org/2000/svg" width="25.125" height="22.11" viewBox="0 0 25.125 22.11">
<g id="Group_786" data-name="Group 786" transform="translate(0 -0.9)">
<path id="Path_353" data-name="Path 353" d="M2.7,8.223h9.045L15.6,4.37V3.7H2.7Z" transform="translate(1.823 1.89)" fill="#fff"/>
<path id="Path_354" data-name="Path 354" d="M19.765,20.665H2.345V3.245h17.42v.67L22.11,2.24V.9H0V23.01H22.11V13.63l-2.345,2.178Z" transform="translate(0 0)" fill="#fff"/>
<path id="Path_355" data-name="Path 355" d="M10.74,7.8H2.7V9.642H9.9A6.192,6.192,0,0,1,10.74,7.8Z" transform="translate(1.823 4.658)" fill="#fff"/>
<path id="Path_356" data-name="Path 356" d="M2.7,10.2v1.842H9.065A6.28,6.28,0,0,1,8.9,10.2Z" transform="translate(1.823 6.278)" fill="#fff"/>
<path id="Path_357" data-name="Path 357" d="M19.074,3.653a1.741,1.741,0,0,0-2.68,0l-2.848,2.68h0L10.364,9.516c-.67.67-2.68,3.852-2.01,4.69.838.838,4.02-1.172,4.69-2.01l2.01-2.01h0l4.02-3.852A2.038,2.038,0,0,0,19.074,3.653Z" transform="translate(5.548 1.434)" fill="#fff"/>
</g>
</svg>