<svg xmlns="http://www.w3.org/2000/svg" width="18.807" height="24.558" viewBox="0 0 18.807 24.558">
<g id="Group_793" data-name="Group 793" transform="translate(78.755 24.558) rotate(180)">
<path id="Path_366" data-name="Path 366" d="M77.666,0H67.937V6.67A1.336,1.336,0,0,1,66.6,8H59.948V23.469a1.09,1.09,0,0,0,1.089,1.089H77.666a1.09,1.09,0,0,0,1.089-1.089V1.088A1.09,1.09,0,0,0,77.666,0ZM75.452,20.828h-12.2V19.662h12.2Zm0-4.728h-12.2V14.934h12.2Zm0-4.727h-12.2V10.207h12.2Zm0-4.728H69.7V5.479h5.751Z" transform="translate(0)" fill="#fff"/>
<path id="Path_367" data-name="Path 367" d="M72.931,12.457V6.865L66.5,13.3h5.592C72.7,13.3,72.931,13.061,72.931,12.457Z" transform="translate(-6.237 -6.536)" fill="#fff"/>
</g>
</svg>