<svg xmlns="http://www.w3.org/2000/svg" width="14" height="12.505" viewBox="0 0 14 12.505">
  <g id="Group_804" data-name="Group 804" transform="translate(-0.001)">
    <path id="Path_372" data-name="Path 372" d="M13.813,10.385,8.226.707a1.414,1.414,0,0,0-2.449,0L.189,10.384A1.413,1.413,0,0,0,1.413,12.5H12.589a1.413,1.413,0,0,0,1.224-2.12ZM7,10.913a.875.875,0,1,1,.875-.875A.875.875,0,0,1,7,10.913Zm.539-2.8a.539.539,0,1,1-1.078,0L6.126,4.155a.875.875,0,1,1,1.75,0Z" transform="translate(0)" fill="#666"/>
  </g>
</svg>
