[16:57] Manh Tran
    <svg xmlns="http://www.w3.org/2000/svg" width="74.148" height="36" viewBox="0 0 74.148 36">
  <g id="Group_738" data-name="Group 738" transform="translate(-19 -20)">
    <text id="マイページ" transform="translate(19 52)" fill="#fff" font-size="14" font-family="NotoSansCJKjp-Bold, Noto Sans CJK JP" font-weight="700"><tspan x="0" y="0">マイページ</tspan></text>
    <g id="Group_737" data-name="Group 737">
      <g id="Group_3" data-name="Group 3" transform="translate(19.852 20)">
        <g id="Group_83" data-name="Group 83">
          <path id="Path_326" data-name="Path 326" d="M543.6,151.209a5.338,5.338,0,0,0-3.738-1.368h-3.656a2.528,2.528,0,0,1-1.7-.5.97.97,0,0,1-.369-.74,1.093,1.093,0,0,1,.378-.822,2.436,2.436,0,0,1,1.691-.506h5.6l-2.524-3.327h-3.081a5.729,5.729,0,0,0-3.928,1.37,4.43,4.43,0,0,0-1.468,3.285,4.3,4.3,0,0,0,1.515,3.252,5.82,5.82,0,0,0,3.881,1.311h3.656a2.028,2.028,0,0,1,1.452.458,1.088,1.088,0,0,1,.35.8,1.018,1.018,0,0,1-.334.759,2.066,2.066,0,0,1-1.469.448h-7.807l-9.8-13.442a1.664,1.664,0,0,0-2.654,0L509,156.232h4.169l2.3-3.047h7.821l-2.495-3.289h-2.843l2.979-3.946,2.995,3.946h-.007l4.656,6.662h.007L529.9,158.3a1.657,1.657,0,0,0,1.326.658h8.633a5.377,5.377,0,0,0,3.74-1.342,4.361,4.361,0,0,0,1.389-3.192A4.416,4.416,0,0,0,543.6,151.209Z" transform="translate(-509 -141.53)" fill="#fff"/>
          <path id="Path_327" data-name="Path 327" d="M596.641,150.991V147.7h-2.5Z" transform="translate(-560.731 -145.277)" fill="#fff"/>
          <g id="Group_81" data-name="Group 81" transform="translate(40.16 14.238)">
            <path id="Path_328" data-name="Path 328" d="M612.616,180.984v-1.448h-1.049v-.422h2.582v.422h-1.064v1.448h1.3v.422H611.34v-.422Z" transform="translate(-611.34 -178.603)" fill="#fff"/>
            <path id="Path_329" data-name="Path 329" d="M623.666,181.3v.471h-3V181.3Z" transform="translate(-617.006 -179.932)" fill="#fff"/>
            <path id="Path_330" data-name="Path 330" d="M631.676,180.984v-1.448h-1.049v-.422h2.582v.422h-1.063v1.448h1.3v.422H630.4v-.422Z" transform="translate(-622.921 -178.603)" fill="#fff"/>
            <path id="Path_331" data-name="Path 331" d="M643.351,181.426a6.634,6.634,0,0,0-.973-1.07,4.238,4.238,0,0,1-1.429,1.045l-.291-.366a3.6,3.6,0,0,0,2.007-2h-1.653v-.418h1.951l.254.284a4.856,4.856,0,0,1-.574,1.111,6.386,6.386,0,0,1,1.093,1.087Z" transform="translate(-629.153 -178.304)" fill="#fff"/>
            <path id="Path_332" data-name="Path 332" d="M653.075,181.314a.39.39,0,0,1-.78,0,.39.39,0,1,1,.78,0Z" transform="translate(-636.224 -179.702)" fill="#fff"/>
            <path id="Path_333" data-name="Path 333" d="M659.182,181.032h-.44v-1.127a5.455,5.455,0,0,1-1.022.447l-.235-.361a4.142,4.142,0,0,0,2.03-1.221H657.8v-.384h.941v-.574h.447v.574h.747l.213.31a4.084,4.084,0,0,1-.743.765,5.216,5.216,0,0,1,1.111.638l-.257.358a6.419,6.419,0,0,0-1.075-.679Z" transform="translate(-639.376 -177.812)" fill="#fff"/>
            <path id="Path_334" data-name="Path 334" d="M668.509,179.865a4.2,4.2,0,0,1,.359.829l-.4.142a4.751,4.751,0,0,0-.332-.832Zm2.1-.019a2.875,2.875,0,0,1-1.645,2.365l-.257-.343a2.472,2.472,0,0,0,1.477-2.1Zm-1.328-.141a3.755,3.755,0,0,1,.355.817l-.4.134a4.323,4.323,0,0,0-.333-.839Z" transform="translate(-645.847 -178.962)" fill="#fff"/>
            <path id="Path_335" data-name="Path 335" d="M678.392,179.043a7.129,7.129,0,0,1,1.477.657l-.2.4a7.824,7.824,0,0,0-1.276-.612v1.6h-.466v-3.112h.466Z" transform="translate(-651.797 -177.916)" fill="#fff"/>
          </g>
          <path id="Path_336" data-name="Path 336" d="M621.216,158.72h-2.682l-.043-.055-4.485-5.836-.379-.494v6.385h-2.514V148.665H613.8l.041.054,4.485,5.837.379.493v-6.384h2.515V158.72Z" transform="translate(-571.043 -145.865)" fill="#fff"/>
          <path id="Path_337" data-name="Path 337" d="M646.963,158.718h-7.375V148.663h7.2v2.162H642.1v1.657h4.291V154.6H642.1v1.961h4.86v2.162Z" transform="translate(-588.343 -145.864)" fill="#fff"/>
          <g id="Group_82" data-name="Group 82" transform="translate(59.33 2.799)">
            <path id="Path_338" data-name="Path 338" d="M680.375,150.824h.033v-2.162h-1.674Z" transform="translate(-671.458 -148.662)" fill="#fff"/>
            <path id="Path_339" data-name="Path 339" d="M665.82,148.662h-5.629v2.162h3.218v7.894h2.515v-7.894h1.537Z" transform="translate(-660.191 -148.662)" fill="#fff"/>
          </g>
        </g>
        <g id="Group_85" data-name="Group 85" transform="translate(69.493 13.96)">
          <path id="Path_340" data-name="Path 340" d="M687.992,180.907a1.9,1.9,0,1,1,1.9-1.9A1.9,1.9,0,0,1,687.992,180.907Zm0-3.438a1.537,1.537,0,1,0,1.538,1.537A1.538,1.538,0,0,0,687.992,177.47Z" transform="translate(-686.092 -177.105)" fill="#fff"/>
          <g id="Group_84" data-name="Group 84" transform="translate(1.032 0.769)">
            <path id="Path_341" data-name="Path 341" d="M688.721,179.112a5.373,5.373,0,0,1,.7-.047,1.124,1.124,0,0,1,.753.2.536.536,0,0,1,.192.431.566.566,0,0,1-.492.567v.012a.529.529,0,0,1,.37.4,3.685,3.685,0,0,0,.218.658h-.36a1.985,1.985,0,0,1-.178-.55.449.449,0,0,0-.479-.4h-.382v.954h-.338Zm.338,1.007h.41c.356,0,.55-.16.55-.393,0-.27-.212-.4-.578-.4a2.028,2.028,0,0,0-.382.026Z" transform="translate(-688.721 -179.065)" fill="#fff"/>
          </g>
        </g>
      </g>
    </g>
  </g>
</svg>
 
