<svg xmlns="http://www.w3.org/2000/svg" width="33.365" height="37.488" viewBox="0 0 33.365 37.488">
  <g id="Group_6" data-name="Group 6" transform="translate(-28.152)">
    <path id="Path_43" data-name="Path 43" d="M35.878,30.62H55.662V.352L51.578,2.26,46.739,0,41.9,2.26,37.067,0,32.232,2.26,28.152.352V32.505a4.645,4.645,0,0,0,1.206,3.209A4.318,4.318,0,0,0,32,37.093a2.242,2.242,0,0,0,.255.014,2.485,2.485,0,0,0,1.247-.351,3.793,3.793,0,0,0,1.166-1.08,7.3,7.3,0,0,0,1.21-4.3V30.62ZM32.731,9.747H51.2v2.261H32.731Zm0,6.707H51.2v2.261H32.731Zm0,8.967V23.159h9.588v2.262Z" fill="#888"/>
    <path id="Path_44" data-name="Path 44" d="M130.687,443.96a9.134,9.134,0,0,1-.846,3.386,6.5,6.5,0,0,1-1.068,1.584h22.2l.034,0c.066.006.134.009.2.009a2.458,2.458,0,0,0,1.236-.352A3.827,3.827,0,0,0,153.6,447.5a6.963,6.963,0,0,0,1.17-3.545Z" transform="translate(-93.255 -411.454)" fill="#888"/>
  </g>
</svg>