<svg xmlns="http://www.w3.org/2000/svg" width="20.7" height="20.254" viewBox="0 0 20.7 20.254">
  <g id="Group_1" data-name="Group 1" transform="translate(80.982 -353.422) rotate(30)">
    <path id="Path_38" data-name="Path 38" d="M264.191,800.506a2.319,2.319,0,0,0,4.572,0l.012-.068h-4.6Z" transform="translate(-145.889 -441.897)" fill="#fcf904"/>
    <path id="Path_39" data-name="Path 39" d="M128.407,355.557c-.187-.173-.379-.319-.563-.461-.777-.6-1.449-1.11-1.449-3.246v-1.694a5.5,5.5,0,0,0-4.521-5.226,1.22,1.22,0,0,0,.159-.6,1.449,1.449,0,0,0-2.889,0,1.22,1.22,0,0,0,.159.6,5.5,5.5,0,0,0-4.521,5.226v1.694c0,2.136-.671,2.651-1.449,3.246-.185.142-.376.288-.563.461l-.017.016v1.681h15.673v-1.681Z" transform="translate(0)" fill="#fcf904"/>
  </g>
</svg>