<svg xmlns="http://www.w3.org/2000/svg" width="50" height="34.257" viewBox="0 0 50 34.257">
  <g id="Group_8" data-name="Group 8" transform="translate(0 -80.604)">
    <path id="Path_45" data-name="Path 45" d="M47.385,80.6H2.615A2.618,2.618,0,0,0,0,83.219v29.026a2.619,2.619,0,0,0,2.615,2.616h44.77A2.619,2.619,0,0,0,50,112.245V83.219A2.618,2.618,0,0,0,47.385,80.6ZM12.907,100.446v-.437a1.931,1.931,0,0,0-.133-.7c-.018-.024-1.835-2.476-1.835-4.693,0-2.642,1.659-4.559,3.945-4.559s3.945,1.917,3.945,4.559c0,2.217-1.817,4.669-1.858,4.736a2,2,0,0,0-.111.658v.437a1.556,1.556,0,0,0,.909,1.411l2.961,1.209a2.166,2.166,0,0,1,1.226,1.567l.14,1.8H7.672l.137-1.783a2.167,2.167,0,0,1,1.222-1.58L12,101.854A1.553,1.553,0,0,0,12.907,100.446Zm29.018,2.208v2.886H26.049v-2.886Zm0-6.211v2.887H26.049V96.443Zm-19.32-3.325V90.232h19.32v2.886Z" transform="translate(0 0)" fill="#888"/>
  </g>
</svg>