<svg xmlns="http://www.w3.org/2000/svg" width="14" height="9.801" viewBox="0 0 14 9.801">
  <g id="Group_946" data-name="Group 946" transform="translate(0 -76.785)">
    <path id="Path_384" data-name="Path 384" d="M13.988,81.582a.593.593,0,0,0-.032-.1,1.193,1.193,0,0,0-.061-.121,6.448,6.448,0,0,0-.395-.58A15.766,15.766,0,0,0,12.437,79.5a9.237,9.237,0,0,0-1.365-1.238,8.89,8.89,0,0,0-2-1.1,5.813,5.813,0,0,0-4.147,0,8.891,8.891,0,0,0-2,1.1,11.1,11.1,0,0,0-1.944,1.9c-.269.324-.5.623-.658.857-.082.117-.148.217-.2.3-.026.043-.047.081-.067.124a.714.714,0,0,0-.031.076.53.53,0,0,0-.017.059.471.471,0,0,0,0,.207.578.578,0,0,0,.032.1A1.168,1.168,0,0,0,.1,82.01a6.444,6.444,0,0,0,.395.58,15.712,15.712,0,0,0,1.063,1.277A9.237,9.237,0,0,0,2.928,85.1a8.894,8.894,0,0,0,2,1.1,5.813,5.813,0,0,0,4.147,0,8.9,8.9,0,0,0,2-1.1,11.1,11.1,0,0,0,1.944-1.9c.269-.324.5-.623.658-.857.082-.117.148-.217.2-.3.026-.043.047-.081.067-.124a.747.747,0,0,0,.031-.076.525.525,0,0,0,.017-.059.471.471,0,0,0,0-.207Zm-1.941,1.394a9.319,9.319,0,0,1-1.487,1.405,8.021,8.021,0,0,1-1.8.992,4.927,4.927,0,0,1-3.525,0,8.02,8.02,0,0,1-1.8-.992,10.288,10.288,0,0,1-1.773-1.741c-.254-.306-.469-.59-.615-.8-.041-.059-.076-.11-.105-.155a12.856,12.856,0,0,1,1.007-1.291A9.332,9.332,0,0,1,3.44,78.989,8.026,8.026,0,0,1,5.238,78a4.927,4.927,0,0,1,3.525,0,8.021,8.021,0,0,1,1.8.992,10.3,10.3,0,0,1,1.773,1.741c.254.307.469.59.615.8.041.059.076.11.105.155A12.886,12.886,0,0,1,12.048,82.976Z" fill="#333"/>
    <path id="Path_385" data-name="Path 385" d="M144.822,141.7a3.125,3.125,0,1,0,3.125,3.125A3.125,3.125,0,0,0,144.822,141.7Zm0,4.577a1.451,1.451,0,1,1,.451-2.83l-.2.622a.472.472,0,0,0,.535.612l.643-.119a1.446,1.446,0,0,1-1.426,1.714Z" transform="translate(-137.822 -63.137)" fill="#333"/>
  </g>
</svg>
