<svg xmlns="http://www.w3.org/2000/svg" width="20" height="17.6" viewBox="0 0 20 17.6">
  <g id="Group_786" data-name="Group 786" transform="translate(0 -0.9)">
    <path id="Path_353" data-name="Path 353" d="M2.7,7.469h7.537l3.21-3.21V3.7H2.7Z" transform="translate(0.722 0.888)" fill="#fff"/>
    <path id="Path_354" data-name="Path 354" d="M15.633,16.633H1.855V2.767H15.633V3.3l1.855-1.333V.9H0V18.5H17.487V11.033l-1.855,1.733Z" transform="translate(0 0)" fill="#fff"/>
    <path id="Path_355" data-name="Path 355" d="M9.4,7.8H2.7V9.335h6A5.16,5.16,0,0,1,9.4,7.8Z" transform="translate(0.821 2.261)" fill="#fff"/>
    <path id="Path_356" data-name="Path 356" d="M2.7,10.2v1.535H8a5.234,5.234,0,0,1-.14-1.535Z" transform="translate(0.843 3.047)" fill="#fff"/>
    <path id="Path_357" data-name="Path 357" d="M17.265,3.548a1.451,1.451,0,0,0-2.233,0L12.659,5.782h0L10.007,8.434c-.558.558-2.233,3.21-1.675,3.908.7.7,3.35-.977,3.908-1.675l1.675-1.675h0l3.35-3.21A1.7,1.7,0,0,0,17.265,3.548Z" transform="translate(2.316 0.567)" fill="#fff"/>
  </g>
</svg>
