<svg xmlns="http://www.w3.org/2000/svg" width="37.752" height="37.578" viewBox="0 0 37.752 37.578">
<g id="Group_787" data-name="Group 787" transform="matrix(0.914, -0.407, 0.407, 0.914, -12.669, -16.782)">
<path id="Path_361" data-name="Path 361" d="M53.657,371.047c-.191.625-.131,1.162.853,1.162l3.347,0a.948.948,0,0,0,1.059-.762c.164-.618,1.251-5.807,1.251-5.807l-5.265.006S53.985,369.973,53.657,371.047Z" transform="translate(-50.22 -313.338)" fill="#3a6ea5"/>
<path id="Path_362" data-name="Path 362" d="M28.683,32.4c0-1.485-1.1-1.627-2.281-.536-6.9,6.352-9.11,6.757-15.662,7.467l-1.856,0H5.338C2.387,39.335,0,42.028,0,45.348s2.4,6.009,5.346,6h5.421c6.539.7,8.751,1.108,15.651,7.442,1.183,1.086,2.282.943,2.282-.542Z" transform="translate(0 0)" fill="#3a6ea5"/>
</g>
</svg>