<svg xmlns="http://www.w3.org/2000/svg" width="15.866" height="18" viewBox="0 0 15.866 18">
  <g id="change_white" data-name="change white" transform="translate(0 0)">
    <path id="Path_347" data-name="Path 347" d="M5.273,4.965a5.436,5.436,0,0,1,4.849-1.484L9.366,5.064a.189.189,0,0,0,.072.225.313.313,0,0,0,.27.09l5.037-.657a.158.158,0,0,0,.117-.252L12.208.134A.491.491,0,0,0,11.966,0,.192.192,0,0,0,11.75.08L11.228,1.16A7.93,7.93,0,0,0,1.954,12.224L3.888,10.29A5.447,5.447,0,0,1,5.273,4.965Z" transform="translate(-1.181 0.005)" fill="#fff"/>
    <path id="Path_348" data-name="Path 348" d="M16.472,6,14.538,7.934A5.414,5.414,0,0,1,8.115,14.7l.558-1.178A.189.189,0,0,0,8.6,13.3a.313.313,0,0,0-.27-.09l-5.037.657a.158.158,0,0,0-.117.252L5.83,18.45a.412.412,0,0,0,.243.144.184.184,0,0,0,.216-.09l.72-1.5A7.928,7.928,0,0,0,16.472,6Z" transform="translate(-1.378 -0.598)" fill="#fff"/>
  </g>
</svg>
